<svg width="34" height="34" viewBox="0 0 34 34" fill="none" xmlns="http://www.w3.org/2000/svg">
<rect x="0.398376" y="0.0853271" width="33.2903" height="33.2903" rx="16.6452" fill="#292929"/>
<path d="M16.7191 6.52856C14.0368 6.52856 13.7001 6.54032 12.6467 6.58822C11.5952 6.63642 10.8775 6.80284 10.2496 7.04708C9.59989 7.29933 9.04888 7.63681 8.49994 8.18594C7.95051 8.73498 7.61303 9.28599 7.35999 9.93537C7.11506 10.5635 6.94844 11.2815 6.90113 12.3325C6.85402 13.386 6.84167 13.7228 6.84167 16.4052C6.84167 19.0875 6.85353 19.4231 6.90133 20.4766C6.94972 21.528 7.11614 22.2458 7.36019 22.8737C7.61264 23.5234 7.95012 24.0744 8.49925 24.6233C9.04809 25.1728 9.5991 25.511 10.2483 25.7633C10.8767 26.0075 11.5946 26.1739 12.6458 26.2221C13.6993 26.27 14.0357 26.2818 16.7179 26.2818C19.4005 26.2818 19.7361 26.27 20.7895 26.2221C21.8409 26.1739 22.5595 26.0075 23.1879 25.7633C23.8373 25.511 24.3875 25.1728 24.9362 24.6233C25.4857 24.0744 25.8231 23.5234 26.0762 22.874C26.319 22.2458 26.4857 21.5278 26.5351 20.4768C26.5824 19.4233 26.5947 19.0875 26.5947 16.4052C26.5947 13.7228 26.5824 13.3862 26.5351 12.3327C26.4857 11.2812 26.319 10.5636 26.0762 9.93567C25.8231 9.28599 25.4857 8.73498 24.9362 8.18594C24.3869 7.63661 23.8375 7.29913 23.1873 7.04718C22.5577 6.80284 21.8396 6.63632 20.7881 6.58822C19.7346 6.54032 19.3992 6.52856 16.716 6.52856H16.7191ZM15.8331 8.30841C16.0961 8.30802 16.3895 8.30841 16.7191 8.30841C19.3562 8.30841 19.6687 8.31789 20.7101 8.3652C21.673 8.40925 22.1957 8.57014 22.5439 8.70535C23.0048 8.88431 23.3334 9.09834 23.6789 9.44411C24.0245 9.78979 24.2385 10.119 24.4179 10.5799C24.5531 10.9276 24.7142 11.4502 24.7581 12.4132C24.8054 13.4544 24.8157 13.7671 24.8157 16.4029C24.8157 19.0388 24.8054 19.3515 24.7581 20.3926C24.714 21.3556 24.5531 21.8783 24.4179 22.226C24.239 22.6869 24.0245 23.0151 23.6789 23.3606C23.3332 23.7063 23.005 23.9202 22.5439 24.0993C22.1961 24.2351 21.673 24.3956 20.7101 24.4396C19.6689 24.4869 19.3562 24.4972 16.7191 24.4972C14.0819 24.4972 13.7693 24.4869 12.7282 24.4396C11.7652 24.3952 11.2426 24.2343 10.8941 24.0991C10.4333 23.92 10.104 23.7061 9.75831 23.3604C9.41263 23.0147 9.19871 22.6863 9.01925 22.2252C8.88404 21.8775 8.72295 21.3548 8.6791 20.3918C8.63179 19.3507 8.62231 19.038 8.62231 16.4004C8.62231 13.763 8.63179 13.4519 8.6791 12.4107C8.72315 11.4478 8.88404 10.9251 9.01925 10.5769C9.19831 10.116 9.41263 9.78683 9.75841 9.44115C10.1041 9.09547 10.4333 8.88145 10.8942 8.70209C11.2424 8.56629 11.7652 8.40579 12.7282 8.36155C13.6393 8.32036 13.9924 8.30802 15.8331 8.30594V8.30841ZM21.9912 9.94831C21.3368 9.94831 20.806 10.4787 20.806 11.1331C20.806 11.7874 21.3368 12.3183 21.9912 12.3183C22.6455 12.3183 23.1763 11.7874 23.1763 11.1331C23.1763 10.4788 22.6455 9.94791 21.9912 9.94791V9.94831ZM16.7191 11.3331C13.9181 11.3331 11.6471 13.6041 11.6471 16.4052C11.6471 19.2063 13.9181 21.4762 16.7191 21.4762C19.5202 21.4762 21.7904 19.2063 21.7904 16.4052C21.7904 13.6042 19.52 11.3331 16.7189 11.3331H16.7191ZM16.7191 13.1129C18.5372 13.1129 20.0113 14.5868 20.0113 16.4052C20.0113 18.2234 18.5372 19.6974 16.7191 19.6974C14.9008 19.6974 13.4269 18.2234 13.4269 16.4052C13.4269 14.5868 14.9008 13.1129 16.7191 13.1129Z" fill="white"/>
</svg>
