<svg width="34" height="34" viewBox="0 0 34 34" fill="none" xmlns="http://www.w3.org/2000/svg">
<rect x="0.237366" y="0.0853271" width="33.2903" height="33.2903" rx="16.6452" fill="#292929"/>
<path d="M25.7323 10.3616C25.6682 10.1934 25.5917 10.1463 25.4733 10.1059C25.2143 10.0162 24.7752 10.1508 24.7752 10.1508C24.7752 10.1508 9.21163 15.2351 8.32355 15.798C8.13113 15.9191 8.06699 15.9886 8.03739 16.0716C7.88444 16.473 8.36302 16.6502 8.36302 16.6502L12.3742 17.8389C12.3742 17.8389 12.5247 17.8591 12.5765 17.8277C13.4892 17.3029 21.7582 12.5572 22.2343 12.398C22.3108 12.3778 22.3651 12.4002 22.3503 12.4473C22.1603 13.0574 14.9792 18.8593 14.9792 18.8593C14.9792 18.8593 14.9521 18.8907 14.9348 18.9266L14.9249 18.9221L14.55 22.5397C14.55 22.5397 14.3921 23.6476 15.6132 22.5397C16.4741 21.7569 17.3055 21.1043 17.7224 20.7858C19.1014 21.6515 20.5864 22.6092 21.2254 23.1093C21.546 23.3605 21.8174 23.4009 22.037 23.3941C22.6438 23.374 22.814 22.7662 22.814 22.7662C22.814 22.7662 25.6509 12.389 25.7447 10.9985C25.7546 10.8617 25.7669 10.7765 25.7669 10.6823C25.7669 10.5522 25.7546 10.4221 25.7323 10.3593V10.3616Z" fill="white"/>
</svg>
