<svg width="34" height="34" viewBox="0 0 34 34" fill="none" xmlns="http://www.w3.org/2000/svg">
<rect x="0.076416" y="0.0853271" width="33.2903" height="33.2903" rx="16.6452" fill="#292929"/>
<path d="M25.0944 13.0484C24.9981 12.6883 24.8101 12.3599 24.5493 12.0961C24.2885 11.8323 23.9639 11.6422 23.6078 11.5447C22.3043 11.1852 17.0579 11.1852 17.0579 11.1852C17.0579 11.1852 11.8114 11.1961 10.5078 11.5556C10.1517 11.6531 9.82713 11.8432 9.5663 12.107C9.30548 12.3709 9.11754 12.6992 9.0212 13.0593C8.62691 15.4019 8.47395 18.9714 9.03202 21.2203C9.12837 21.5804 9.31632 21.9087 9.57715 22.1725C9.83797 22.4363 10.1626 22.6264 10.5186 22.7239C11.8222 23.0835 17.0686 23.0835 17.0686 23.0835C17.0686 23.0835 22.315 23.0835 23.6185 22.7239C23.9746 22.6265 24.2992 22.4364 24.56 22.1725C24.8209 21.9087 25.0088 21.5804 25.1052 21.2203C25.521 18.8744 25.6492 15.3071 25.0944 13.0484Z" fill="white"/>
<path d="M14.3563 20.242L19.7749 17.1009L14.3563 13.9598V20.242Z" fill="#292929"/>
</svg>
